<?xml version="1.0" standalone="no"?>
<!DOCTYPE svg PUBLIC "-//W3C//DTD SVG 20010904//EN"
 "http://www.w3.org/TR/2001/REC-SVG-20010904/DTD/svg10.dtd">
<svg version="1.0" xmlns="http://www.w3.org/2000/svg"
 width="700.000000pt" height="700.000000pt" viewBox="0 0 700.000000 700.000000"
 preserveAspectRatio="xMidYMid meet">
<metadata>
Created by potrace 1.14, written by Peter Selinger 2001-2017
</metadata>
<g transform="translate(0.000000,700.000000) scale(0.100000,-0.100000)"
fill="#000000" stroke="none">
<path d="M3397 6124 c-1 -1 -38 -5 -82 -8 -44 -4 -105 -11 -135 -16 -30 -5
-71 -11 -90 -14 -91 -13 -343 -89 -435 -131 -129 -58 -179 -83 -255 -128 -440
-258 -775 -659 -948 -1132 -38 -105 -74 -225 -87 -290 -3 -16 -8 -41 -10 -55
-12 -60 -25 -150 -30 -215 -4 -38 -10 -73 -13 -77 -4 -3 -23 -9 -42 -12 -19
-3 -73 -17 -120 -31 -502 -150 -901 -533 -1066 -1025 -15 -47 -29 -89 -30 -95
-1 -5 -9 -40 -18 -76 -23 -97 -31 -178 -31 -329 0 -221 18 -339 80 -525 51
-155 162 -358 264 -485 48 -61 184 -197 246 -247 175 -141 392 -250 615 -308
86 -22 115 -27 235 -42 78 -9 4006 -9 4107 0 421 39 823 257 1094 592 108 134
217 332 269 490 30 90 29 83 57 225 22 110 31 363 16 480 -66 542 -403 1013
-893 1250 -106 51 -241 99 -340 120 -33 7 -63 16 -68 20 -4 3 -9 37 -12 76 -3
38 -7 80 -10 94 -2 14 -7 41 -10 60 -17 108 -75 340 -95 379 -5 9 -19 43 -31
76 -46 122 -132 287 -212 405 -243 362 -571 634 -968 803 -202 86 -422 141
-649 163 -68 6 -298 12 -303 8z m391 -2332 l2 -582 118 0 c64 -1 261 -1 436 0
l320 0 -35 -36 c-124 -130 -1122 -1124 -1129 -1124 -6 0 -1027 1017 -1135
1130 l-30 31 85 -1 c47 -1 244 -1 438 -1 l352 1 0 583 0 582 287 0 288 0 3
-583z"/>
</g>
</svg>
